<?xml version="1.0"?>
<svg xmlns="http://www.w3.org/2000/svg" xmlns:xlink="http://www.w3.org/1999/xlink" version="1.1" id="Capa_1" x="0px" y="0px" viewBox="0 0 512.001 512.001" style="enable-background:new 0 0 512.001 512.001;" xml:space="preserve" width="512px" height="512px" class=""><g><g>
	<g>
		<path d="M463.845,48.16C416.678,0.993,347.88-11.488,289.158,10.543c-25.94,9.733-46.814,29.584-57.846,55    c-11.048,25.456-7.623,40.958-1.527,47.054c0.073,0.073,0.145,0.145,0.228,0.228c5.832,5.562,15.237,5.438,20.944-0.269    l21.213-21.213c17.546-17.546,46.093-17.546,63.64,0c17.546,17.546,17.546,46.093,0,63.64l-21.213,21.213    c-5.852,5.852-5.852,15.361,0,21.213c5.852,5.852,15.361,5.852,21.213,0l21.213-21.213c17.546-17.546,46.093-17.546,63.64,0    c17.546,17.546,17.546,46.093,0,63.64l-21.213,21.213c-5.769,5.769-5.914,14.947-0.321,20.871c0.083,0.104,0.176,0.197,0.269,0.29    c6.642,6.642,24.58,10.342,54.708-4.985c20.137-10.243,36.026-27.264,44.831-48.07C524.345,169.112,512.713,97.028,463.845,48.16z    " data-original="#000000" class="active-path" data-old_color="#000026" fill="#000024"/>
	</g>
</g><g>
	<g>
		<path d="M377.293,302.49c-16.79-17.826-16.376-45.337,0.943-62.656l21.213-21.213c5.852-5.852,5.852-15.361,0-21.213    s-15.361-5.852-21.213,0l-21.213,21.213c-17.546,17.546-46.093,17.546-63.64,0c-17.546-17.546-17.546-46.093,0-63.64    l21.213-21.213c5.852-5.852,5.852-15.361,0-21.213s-15.361-5.852-21.213,0l-21.213,21.213    c-17.132,17.132-45.337,17.474-62.852,0.766c-0.28-0.259-0.549-0.528-0.808-0.787c-9.777-9.777-15.266-24.534-14.083-43.464    c-6.18,2.71-12.063,6.012-16.96,10.908c-23.78,23.78-26.184,58.669,7.758,92.611c5.945,33.726,21.534,63.961,45.275,87.701    c24.124,24.124,54.794,39.775,89.079,45.513c20.965,29.272,65.494,33.26,91.233,7.52c4.986-4.984,8.321-10.992,11.049-17.301    C402.233,318.434,387.066,312.582,377.293,302.49z" data-original="#000000" class="active-path" data-old_color="#000026" fill="#000024"/>
	</g>
</g><g>
	<g>
		<path d="M303.399,354.405c-12.948-2.929-25.232-7.536-37.131-12.904l11.069,42.063l38.743-18.079    C311.485,362.231,307.224,358.532,303.399,354.405z" data-original="#000000" class="active-path" data-old_color="#000026" fill="#000024"/>
	</g>
</g><g>
	<g>
		<path d="M229.682,320.411c-7.175-5.391-13.996-11.293-20.396-17.693c-25.791-25.791-43.628-58.357-51.749-94.403l-7.376-7.954    l-0.918,1.884l56.508,214.722l43.945-20.505L229.682,320.411z" data-original="#000000" class="active-path" data-old_color="#000026" fill="#000024"/>
	</g>
</g><g>
	<g>
		<polygon points="129.09,243.596 82.832,323.579 119.945,464.58 178.111,429.865   " data-original="#000000" class="active-path" data-old_color="#000026" fill="#000024"/>
	</g>
</g><g>
	<g>
		<path d="M62.688,364.91L1.515,490.435c-2.786,5.707-1.657,12.554,2.786,17.08c0.031,0.031,0.062,0.062,0.093,0.093    c4.454,4.454,11.228,5.655,16.946,2.983l70.976-33.12L62.688,364.91z" data-original="#000000" class="active-path" data-old_color="#000026" fill="#000024"/>
	</g>
</g></g> </svg>
